.
 
http://www.scenetime.com    -   SceneTime [ We been having it ] !!!


How come you press harder on a remote control when you know the battery is dead? so you better seed to get speed ;)

        Seed back for speed


...................................NFO:.................................................Another Fine Release Brought to you from -
===================================================================================================
BBBBBBBBBBBBBBBBB   BBBBBBBBBBBBBBBBB                     RRRRRRRRRRRRRRRRR           GGGGGGGGGGGGG
B::::::::::::::::B  B::::::::::::::::B                    R::::::::::::::::R       GGG::::::::::::G
B::::::BBBBBB:::::B B::::::BBBBBB:::::B                   R::::::RRRRRR:::::R    GG:::::::::::::::G
BB:::::B     B:::::BBB:::::B     B:::::B                  RR:::::R     R:::::R  G:::::GGGGGGGG::::G
  B::::B     B:::::B  B::::B     B:::::Bnnnn  nnnnnnnn      R::::R     R:::::R G:::::G       GGGGGG
  B::::B     B:::::B  B::::B     B:::::Bn:::nn::::::::nn    R::::R     R:::::RG:::::G              
  B::::BBBBBB:::::B   B::::BBBBBB:::::B n::::::::::::::nn   R::::RRRRRR:::::R G:::::G              
  B:::::::::::::BB    B:::::::::::::BB  nn:::::::::::::::n  R:::::::::::::RR  G:::::G    GGGGGGGGGG
  B::::BBBBBB:::::B   B::::BBBBBB:::::B   n:::::nnnn:::::n  R::::RRRRRR:::::R G:::::G    G::::::::G
  B::::B     B:::::B  B::::B     B:::::B  n::::n    n::::n  R::::R     R:::::RG:::::G    GGGGG::::G
  B::::B     B:::::B  B::::B     B:::::B  n::::n    n::::n  R::::R     R:::::RG:::::G        G::::G
  B::::B     B:::::B  B::::B     B:::::B  n::::n    n::::n  R::::R     R:::::R G:::::G       G::::G
BB:::::BBBBBB::::::BBB:::::BBBBBB::::::B  n::::n    n::::nRR:::::R     R:::::R  G:::::GGGGGGGG::::G
B:::::::::::::::::B B:::::::::::::::::B   n::::n    n::::nR::::::R     R:::::R   GG:::::::::::::::G
B::::::::::::::::B  B::::::::::::::::B    n::::n    n::::nR::::::R     R:::::R     GGG::::::GGG:::G
BBBBBBBBBBBBBBBBB   BBBBBBBBBBBBBBBBB     nnnnnn    nnnnnnRRRRRRRR     RRRRRRR        GGGGGG   GGGG
===================================================================================================
	               The Green Lantern (2011) READNFO TS x264-BBnRG
===================================================================================================												
 ___     _                    ___       __     
| _ \___| |___ __ _ ___ ___  |_ _|_ _  / _|___ 
|   / -_) / -_) _` (_-</ -_)  | || ' \|  _/ _ \
|_|_\___|_\___\__,_/__/\___| |___|_||_|_| \___/
===================================================================================================
Complete name                    : The Green Lantern (2011) READNFO TS x264-BBnRG
Format                           : MPEG-4
Format profile                   : Base Media / Version 2
Codec ID                         : mp42
File size                        : 423 MiB
Duration                         : 1h 47mn
Overall bit rate                 : 553 Kbps

Video
ID                               : 1
Format                           : AVC
Format/Info                      : Advanced Video Codec
Format profile                   : Main@L3.0
Format settings, CABAC           : Yes
Format settings, ReFrames        : 4 frames
Format settings, GOP             : M=1, N=32
Codec ID                         : avc1
Codec ID/Info                    : Advanced Video Coding
Duration                         : 1h 47mn
Bit rate mode                    : Variable
Bit rate                         : 391 Kbps
Width                            : 720 pixels
Height                           : 304 pixels
Display aspect ratio             : 2.35:1
Frame rate mode                  : Constant
Frame rate                       : 25.000 fps
Color space                      : YUV
Chroma subsampling               : 4:2:0
Bit depth                        : 8 bits
Scan type                        : Progressive
Bits/(Pixel*Frame)               : 0.071
Stream size                      : 298 MiB (70%)
Writing library                  : x264 core 112

Audio
ID                               : 2
Format                           : AAC
Format/Info                      : Advanced Audio Codec
Format profile                   : LC
Codec ID                         : 40
Duration                         : 1h 47mn
Bit rate mode                    : Variable
Bit rate                         : 160 Kbps
Maximum bit rate                 : 209 Kbps
Channel(s)                       : 2 channels
Channel positions                : Front: L R
Sampling rate                    : 44.1 KHz
Compression mode                 : Lossy
Stream size                      : 122 MiB (29%)
 ___     _                    ___                 _      _   _          
| _ \___| |___ __ _ ___ ___  |   \ ___ ___ __ _ _(_)_ __| |_(_)___ _ _  
|   / -_) / -_) _` (_-</ -_) | |) / -_|_-</ _| '_| | '_ \  _| / _ \ ' \ 
|_|_\___|_\___\__,_/__/\___| |___/\___/__/\__|_| |_| .__/\__|_\___/_||_|
                                                   |_|                  
===================================================================================================
Encoder: SMiLE

Title: Green Lantern

Plot:
A test pilot is granted a mystical green ring that bestows him with otherworldly powers, as well 
as membership into an intergalactic squadron tasked with keeping peace within the universe.

IMDB: http://www.imdb.com/title/tt0844993/

IMDB Rating: 6.2/10 (18,664 votes)

Motion Picture Rating:
Rated {{PG-13}} OR {{12a}} - N/A
  ___                     _  _     _          
 / __|_ _ ___ _  _ _ __  | \| |___| |_ ___ ___
| (_ | '_/ _ \ || | '_ \ | .` / _ \  _/ -_|_-<
 \___|_| \___/\_,_| .__/ |_|\_\___/\__\___/__/
                  |_|                        
===================================================================================================
Source(s):
Video: Green.Lantern.TS.LD.German.XviD-FLOPPYDiSK (Thanks!)
Audio: IMAGiNE's ENGLiSH LiNE (Thanks!)

Release Notes:
Here we go with another fine release. The whole reason for the READNFO is just to let you know,
that for this encode the new German TS video from FLOPPYDiSK has been used. It's also our first TS,
many groups will have already used the old video to do a TS, we never did. Big thanks to IMAGiNE
for the LiNE audio. I touched the video up slightly, and i mean slightly. I then did my usual
conversion to x264 MP4. Hardly any quality has been lost, and this can easily compete with bigger
files on quality. The quality is average going on good for a TS, it's pretty dark in the dark
scenes. This has hardcoded english subtitles when needed - Thanks IMAGiNE. If you choose to
download, as always - Enjoy! :P

BBnRG: The Gods Of Great Quality Rips At A Small File Size.

SMiLE: Presenting Another Great Quality Release At A Small File Size.

Follow Us On Twitter:
If you have anything to offer; CAM'S, DVDSCR's, LiNE Audio, Or Anything please PM us or contact us.
  ___             _      
 / __|_ _ ___ ___| |_ ___
| (_ | '_/ -_) -_)  _|_ /
 \___|_| \___\___|\__/__|
===================================================================================================

IMAGiNE, ViSiON, 3LT0N, Hive-CM8, T0XiC, *THC*, TWiZTED, BBRG, HiVE-CM8, BHRG, PECKO, CRYS, SC0RN,
  DEFACED, AMiABLE, KiNGDOM, aAF, MOUMENTUM, UnKnOwN, FreaK, FLAWL3SS, BDK, SMSB, ViP3R, EMBER,
LKRG, LTRG, MXMG, Rx, MASSiVE, TaRiQ786, DiVERSiTY, Jucified, RippeR, EXViD, TDP, VoMiT, PRESTiGE.

           All BBnRG Encoders & to all other p2p teams out there, keep rockin' guys! :P
===================================================================================================
                              Enjoy Another Fine BBnRG Release!
===================================================================================================